{
  "asset": {
    "version": "2.0",
    "generator": "THREE.GLTFExporter r166"
  },
  "scenes": [
    {
      "name": "AuxScene",
      "nodes": [
        12
      ]
    }
  ],
  "scene": 0,
  "nodes": [
    {
      "translation": [
        -517.5229454040527,
        -246.8264946937561,
        -125
      ],
      "extras": {
        "isHole": false
      },
      "mesh": 0
    },
    {
      "translation": [
        -517.5229454040527,
        -246.8264946937561,
        -125
      ],
      "extras": {
        "isHole": false
      },
      "mesh": 1
    },
    {
      "translation": [
        -517.5229454040527,
        -246.8264946937561,
        -125
      ],
      "extras": {
        "isHole": false
      },
      "mesh": 2
    },
    {
      "translation": [
        -517.5229454040527,
        -246.8264946937561,
        -125
      ],
      "extras": {
        "isHole": false
      },
      "mesh": 3
    },
    {
      "translation": [
        -517.5229454040527,
        -246.8264946937561,
        -125
      ],
      "extras": {
        "isHole": false
      },
      "mesh": 4
    },
    {
      "translation": [
        -517.5229454040527,
        -246.8264946937561,
        -125
      ],
      "extras": {
        "isHole": false
      },
      "mesh": 5
    },
    {
      "translation": [
        -517.5229454040527,
        -246.8264946937561,
        -125
      ],
      "extras": {
        "isHole": false
      },
      "mesh": 6
    },
    {
      "children": [
        0,
        1,
        2,
        3,
        4,
        5,
        6
      ]
    },
    {
      "rotation": [
        0,
        0.3826834323650898,
        0,
        0.9238795325112867
      ],
      "scale": [
        0.08169934640522876,
        -0.08169934640522876,
        0.08169934640522876
      ],
      "children": [
        7
      ]
    },
    {
      "children": [
        8
      ]
    },
    {
      "translation": [
        -5.457896119732332,
        1.1131781378602668,
        5.457896112845596
      ],
      "children": [
        9
      ]
    },
    {
      "children": [
        10
      ]
    },
    {
      "children": [
        11
      ]
    }
  ],
  "bufferViews": [
    {
      "buffer": 0,
      "byteOffset": 0,
      "byteLength": 4896,
      "target": 34962,
      "byteStride": 12
    },
    {
      "buffer": 0,
      "byteOffset": 4896,
      "byteLength": 3264,
      "target": 34962,
      "byteStride": 8
    },
    {
      "buffer": 0,
      "byteOffset": 8160,
      "byteLength": 4896,
      "target": 34962,
      "byteStride": 12
    },
    {
      "buffer": 0,
      "byteOffset": 13056,
      "byteLength": 4896,
      "target": 34962,
      "byteStride": 12
    },
    {
      "buffer": 0,
      "byteOffset": 17952,
      "byteLength": 3264,
      "target": 34962,
      "byteStride": 8
    },
    {
      "buffer": 0,
      "byteOffset": 21216,
      "byteLength": 4896,
      "target": 34962,
      "byteStride": 12
    },
    {
      "buffer": 0,
      "byteOffset": 26112,
      "byteLength": 4896,
      "target": 34962,
      "byteStride": 12
    },
    {
      "buffer": 0,
      "byteOffset": 31008,
      "byteLength": 3264,
      "target": 34962,
      "byteStride": 8
    },
    {
      "buffer": 0,
      "byteOffset": 34272,
      "byteLength": 4896,
      "target": 34962,
      "byteStride": 12
    },
    {
      "buffer": 0,
      "byteOffset": 39168,
      "byteLength": 7200,
      "target": 34962,
      "byteStride": 12
    },
    {
      "buffer": 0,
      "byteOffset": 46368,
      "byteLength": 4800,
      "target": 34962,
      "byteStride": 8
    },
    {
      "buffer": 0,
      "byteOffset": 51168,
      "byteLength": 7200,
      "target": 34962,
      "byteStride": 12
    },
    {
      "buffer": 0,
      "byteOffset": 58368,
      "byteLength": 14688,
      "target": 34962,
      "byteStride": 12
    },
    {
      "buffer": 0,
      "byteOffset": 73056,
      "byteLength": 9792,
      "target": 34962,
      "byteStride": 8
    },
    {
      "buffer": 0,
      "byteOffset": 82848,
      "byteLength": 14688,
      "target": 34962,
      "byteStride": 12
    },
    {
      "buffer": 0,
      "byteOffset": 97536,
      "byteLength": 4896,
      "target": 34962,
      "byteStride": 12
    },
    {
      "buffer": 0,
      "byteOffset": 102432,
      "byteLength": 3264,
      "target": 34962,
      "byteStride": 8
    },
    {
      "buffer": 0,
      "byteOffset": 105696,
      "byteLength": 4896,
      "target": 34962,
      "byteStride": 12
    },
    {
      "buffer": 0,
      "byteOffset": 110592,
      "byteLength": 14688,
      "target": 34962,
      "byteStride": 12
    },
    {
      "buffer": 0,
      "byteOffset": 125280,
      "byteLength": 9792,
      "target": 34962,
      "byteStride": 8
    },
    {
      "buffer": 0,
      "byteOffset": 135072,
      "byteLength": 14688,
      "target": 34962,
      "byteStride": 12
    }
  ],
  "buffers": [
    {
      "byteLength": 149760,
      "uri": "data:application/octet-stream;base64,"
    }
  ],
  "accessors": [
    {
      "bufferView": 0,
      "componentType": 5126,
      "count": 408,
      "max": [
        361.8389892578125,
        446.4523010253906,
        250
      ],
      "min": [
        307.5790100097656,
        402.2492980957031,
        0
      ],
      "type": "VEC3"
    },
    {
      "bufferView": 1,
      "componentType": 5126,
      "count": 408,
      "max": [
        446.4523010253906,
        446.4523010253906
      ],
      "min": [
        307.5790100097656,
        -249
      ],
      "type": "VEC2"
    },
    {
      "bufferView": 2,
      "componentType": 5126,
      "count": 408,
      "max": [
        0.9990648627281189,
        1,
        1
      ],
      "min": [
        -1,
        -1,
        -1
      ],
      "type": "VEC3"
    },
    {
      "bufferView": 3,
      "componentType": 5126,
      "count": 408,
      "max": [
        358.09100341796875,
        378.518310546875,
        250
      ],
      "min": [
        307.5790100097656,
        337.4183044433594,
        0
      ],
      "type": "VEC3"
    },
    {
      "bufferView": 4,
      "componentType": 5126,
      "count": 408,
      "max": [
        378.518310546875,
        378.518310546875
      ],
      "min": [
        307.5790100097656,
        -249
      ],
      "type": "VEC2"
    },
    {
      "bufferView": 5,
      "componentType": 5126,
      "count": 408,
      "max": [
        0.9992908835411072,
        1,
        1
      ],
      "min": [
        -1,
        -1,
        -1
      ],
      "type": "VEC3"
    },
    {
      "bufferView": 6,
      "componentType": 5126,
      "count": 408,
      "max": [
        641.2210083007812,
        210.24830627441406,
        250
      ],
      "min": [
        586.9310302734375,
        166.02630615234375,
        0
      ],
      "type": "VEC3"
    },
    {
      "bufferView": 7,
      "componentType": 5126,
      "count": 408,
      "max": [
        641.2210083007812,
        210.24830627441406
      ],
      "min": [
        166.02630615234375,
        -249
      ],
      "type": "VEC2"
    },
    {
      "bufferView": 8,
      "componentType": 5126,
      "count": 408,
      "max": [
        0.9990860819816589,
        1,
        1
      ],
      "min": [
        -1,
        -1,
        -1
      ],
      "type": "VEC3"
    },
    {
      "bufferView": 9,
      "componentType": 5126,
      "count": 600,
      "max": [
        1129.52197265625,
        507.2782897949219,
        250
      ],
      "min": [
        658.2406616210938,
        123.03829956054688,
        0
      ],
      "type": "VEC3"
    },
    {
      "bufferView": 10,
      "componentType": 5126,
      "count": 600,
      "max": [
        1129.52197265625,
        507.2782897949219
      ],
      "min": [
        127.87467193603516,
        -249
      ],
      "type": "VEC2"
    },
    {
      "bufferView": 11,
      "componentType": 5126,
      "count": 600,
      "max": [
        1,
        1,
        1
      ],
      "min": [
        -1,
        -1,
        -1
      ],
      "type": "VEC3"
    },
    {
      "bufferView": 12,
      "componentType": 5126,
      "count": 1224,
      "max": [
        565.7433471679688,
        507.2782897949219,
        250
      ],
      "min": [
        94.47608184814453,
        123.03829956054688,
        0
      ],
      "type": "VEC3"
    },
    {
      "bufferView": 13,
      "componentType": 5126,
      "count": 1224,
      "max": [
        565.7433471679688,
        507.2782897949219
      ],
      "min": [
        94.47608184814453,
        -249
      ],
      "type": "VEC2"
    },
    {
      "bufferView": 14,
      "componentType": 5126,
      "count": 1224,
      "max": [
        1,
        1,
        1
      ],
      "min": [
        -0.9994428157806396,
        -1,
        -1
      ],
      "type": "VEC3"
    },
    {
      "bufferView": 15,
      "componentType": 5126,
      "count": 408,
      "max": [
        637.4910278320312,
        142.32130432128906,
        250
      ],
      "min": [
        586.9310302734375,
        101.2345962524414,
        0
      ],
      "type": "VEC3"
    },
    {
      "bufferView": 16,
      "componentType": 5126,
      "count": 408,
      "max": [
        637.4910278320312,
        142.32130432128906
      ],
      "min": [
        101.2345962524414,
        -249
      ],
      "type": "VEC2"
    },
    {
      "bufferView": 17,
      "componentType": 5126,
      "count": 408,
      "max": [
        0.999293863773346,
        1,
        1
      ],
      "min": [
        -1,
        -1,
        -1
      ],
      "type": "VEC3"
    },
    {
      "bufferView": 18,
      "componentType": 5126,
      "count": 1224,
      "max": [
        847.5667724609375,
        397.8572998046875,
        250
      ],
      "min": [
        376.30596923828125,
        13.625300407409668,
        0
      ],
      "type": "VEC3"
    },
    {
      "bufferView": 19,
      "componentType": 5126,
      "count": 1224,
      "max": [
        847.5667724609375,
        397.8572998046875
      ],
      "min": [
        19.241168975830078,
        -249
      ],
      "type": "VEC2"
    },
    {
      "bufferView": 20,
      "componentType": 5126,
      "count": 1224,
      "max": [
        1,
        1,
        1
      ],
      "min": [
        -0.9994798898696899,
        -1,
        -1
      ],
      "type": "VEC3"
    }
  ],
  "materials": [
    {
      "pbrMetallicRoughness": {
        "baseColorFactor": [
          0.76052450467022,
          0.05126945836711539,
          0.040915196900556984,
          1
        ],
        "metallicFactor": 0.9,
        "roughnessFactor": 0.2
      },
      "extras": {
        "isHole": false
      }
    }
  ],
  "meshes": [
    {
      "primitives": [
        {
          "mode": 4,
          "attributes": {
            "POSITION": 0,
            "TEXCOORD_0": 1,
            "NORMAL": 2
          },
          "material": 0
        }
      ]
    },
    {
      "primitives": [
        {
          "mode": 4,
          "attributes": {
            "POSITION": 3,
            "TEXCOORD_0": 4,
            "NORMAL": 5
          },
          "material": 0
        }
      ]
    },
    {
      "primitives": [
        {
          "mode": 4,
          "attributes": {
            "POSITION": 6,
            "TEXCOORD_0": 7,
            "NORMAL": 8
          },
          "material": 0
        }
      ]
    },
    {
      "primitives": [
        {
          "mode": 4,
          "attributes": {
            "POSITION": 9,
            "TEXCOORD_0": 10,
            "NORMAL": 11
          },
          "material": 0
        }
      ]
    },
    {
      "primitives": [
        {
          "mode": 4,
          "attributes": {
            "POSITION": 12,
            "TEXCOORD_0": 13,
            "NORMAL": 14
          },
          "material": 0
        }
      ]
    },
    {
      "primitives": [
        {
          "mode": 4,
          "attributes": {
            "POSITION": 15,
            "TEXCOORD_0": 16,
            "NORMAL": 17
          },
          "material": 0
        }
      ]
    },
    {
      "primitives": [
        {
          "mode": 4,
          "attributes": {
            "POSITION": 18,
            "TEXCOORD_0": 19,
            "NORMAL": 20
          },
          "material": 0
        }
      ]
    }
  ]
}